<svg version="1" xmlns="http://www.w3.org/2000/svg" width="346.667" height="346.667" viewBox="0 0 260.000000 260.000000"><path d="M13.2 15.2c-1.7 1.7-1.7 61.9 0 63.6 1.7 1.7 61.9 1.7 63.6 0 1.7-1.7 1.7-61.9 0-63.6-1.7-1.7-61.9-1.7-63.6 0z"/><path d="M98.2 15.2c-1.7 1.7-1.7 61.9 0 63.6.9.9 8.5 1.2 28.2 1.2h27.1l-8 8-8 8h-19c-13.5 0-19.5.4-20.3 1.2-.8.8-1.2 6.8-1.2 20.3v19l-9.5 9.5-9.5 9.5v-28.6c0-20.8-.3-28.8-1.2-29.7-1.7-1.7-61.9-1.7-63.6 0-1.7 1.7-1.7 61.9 0 63.6.9.9 8.9 1.2 29.7 1.2h28.6l-9.5 9.5-9.5 9.5h-19c-13.5 0-19.5.4-20.3 1.2-1.7 1.7-1.7 61.9 0 63.6 1.7 1.7 61.9 1.7 63.6 0 .9-.9 1.2-7.2 1.2-22.3v-21l9.5-9.5 9.5-9.5v30.6c0 22.4.3 30.8 1.2 31.7.8.8 6.3 1.2 18 1.2H133v-66H99.5l9.5-9.5 9.5-9.5H133v-28h30v-16.5l9.5-9.5 9.5-9.5V134h66v-17.8c0-12.5-.4-18.2-1.2-19-.9-.9-9.3-1.2-31.7-1.2h-30.6l8-8 8-8H223c16.3 0 22.9-.3 23.8-1.2 1.7-1.7 1.7-61.9 0-63.6-1.7-1.7-61.9-1.7-63.6 0-.8.8-1.2 6.4-1.2 18.8v17.5l-9.5 9.5-9.5 9.5V43.4c0-19.7-.3-27.3-1.2-28.2-1.7-1.7-61.9-1.7-63.6 0z"/><path d="M178.9 177.1c-10.5 21.1-24 48.4-30 60.6L138.1 260h61c67.1 0 62.8.4 59-6.2-1-1.8-14.8-28.3-30.6-58.8-15.8-30.5-28.9-55.7-29-55.9-.2-.2-9 16.9-19.6 38z"/></svg>